<svg width="7" height="12" viewBox="0 0 7 12" fill="none" xmlns="http://www.w3.org/2000/svg">
<path d="M6.30001 0.69922C6.48335 0.882553 6.57501 1.11588 6.57501 1.39922C6.57501 1.68255 6.48335 1.91589 6.30001 2.09922L2.40001 5.99922L6.30001 9.89922C6.48335 10.0826 6.57501 10.3159 6.57501 10.5992C6.57501 10.8826 6.48335 11.1159 6.30001 11.2992C6.11668 11.4826 5.88335 11.5742 5.60001 11.5742C5.31668 11.5742 5.08335 11.4826 4.90001 11.2992L0.300013 6.69922C0.200013 6.59922 0.129012 6.49089 0.0870123 6.37422C0.0450125 6.25755 0.0243454 6.13255 0.025012 5.99922C0.025012 5.86589 0.0460129 5.74089 0.0880127 5.62422C0.130013 5.50755 0.200679 5.39922 0.300013 5.29922L4.90001 0.69922C5.08335 0.515886 5.31668 0.424218 5.60001 0.424218C5.88335 0.424218 6.11668 0.515886 6.30001 0.69922Z" fill="#60625D"/>
</svg>
