<svg width="32" height="32" viewBox="0 0 32 32" fill="none" xmlns="http://www.w3.org/2000/svg">
<path d="M8.25294 17.6601H23.747M16 17.6601V29.2806M9.91302 14.8933V9.91302H8.61595C7.87891 9.91303 7.16282 10.1583 6.58053 10.6101C5.99824 11.062 5.58285 11.6947 5.39982 12.4087L3.27271 20.7035V20.9802H11.0197V22.6403C11.0197 24.3004 11.0197 25.4071 11.8498 27.0672C11.8498 27.0672 12.6798 28.7273 13.7865 28.7273M22.0869 14.8933V9.91302H23.384C24.121 9.91303 24.8371 10.1583 25.4194 10.6101C26.0017 11.062 26.4171 11.6947 26.6001 12.4087L28.7273 20.7035V20.9802H20.9802V22.6403C20.9802 24.3004 20.9802 25.4071 20.1502 27.0672C20.1502 27.0672 19.3201 28.7273 18.2134 28.7273M9.74701 7.69958C9.74701 7.69958 7.97626 6.59286 7.97626 5.20946C7.97626 4.69639 8.18008 4.20433 8.54288 3.84153C8.90568 3.47874 9.39773 3.27492 9.91081 3.27492C10.4239 3.27492 10.9159 3.47874 11.2787 3.84153C11.6415 4.20433 11.8454 4.69639 11.8454 5.20946C11.8454 6.59286 10.079 7.69958 10.079 7.69958H9.74701ZM22.2529 7.69958C22.2529 7.69958 24.0237 6.59286 24.0237 5.20946C24.0237 4.6958 23.8196 4.20318 23.4564 3.83997C23.0932 3.47676 22.6006 3.27271 22.0869 3.27271C21.0178 3.27271 20.1546 4.14037 20.1546 5.20946C20.1546 6.59286 21.9209 7.69958 21.9209 7.69958H22.2529Z" stroke="#41443D"/>
</svg>
